<svg width="1018" height="415" viewBox="0 0 1018 415" fill="none" xmlns="http://www.w3.org/2000/svg">
<rect width="1018" height="415" rx="50" fill="#F5F5F5"/>
<path d="M350.468 218.701C344.511 212.813 344.511 203.266 350.468 197.378L377.153 171L387.94 181.662C393.897 187.55 393.897 197.097 387.94 202.985L361.254 229.363L350.468 218.701Z" fill="#212121"/>
<path d="M392.014 230.232L354.702 193.35L350.547 197.457C344.59 203.345 344.59 212.892 350.547 218.78L377.073 245L392.014 230.232Z" fill="black"/>
<path d="M361.254 229.363L388.579 202.353L393.532 207.25C399.489 213.138 399.489 222.685 393.532 228.573L376.993 244.921L361.254 229.363Z" fill="#4D4D4D"/>
<path d="M452.261 208.455C452.261 211.627 451.66 214.326 450.457 216.551C449.264 218.777 447.635 220.476 445.571 221.651C443.516 222.815 441.205 223.398 438.639 223.398C436.054 223.398 433.734 222.811 431.679 221.636C429.624 220.462 428 218.762 426.807 216.537C425.614 214.312 425.017 211.617 425.017 208.455C425.017 205.282 425.614 202.583 426.807 200.358C428 198.133 429.624 196.437 431.679 195.273C433.734 194.098 436.054 193.511 438.639 193.511C441.205 193.511 443.516 194.098 445.571 195.273C447.635 196.437 449.264 198.133 450.457 200.358C451.66 202.583 452.261 205.282 452.261 208.455ZM446.026 208.455C446.026 206.4 445.718 204.667 445.102 203.256C444.496 201.845 443.639 200.775 442.531 200.045C441.423 199.316 440.126 198.952 438.639 198.952C437.152 198.952 435.855 199.316 434.747 200.045C433.639 200.775 432.777 201.845 432.162 203.256C431.556 204.667 431.253 206.4 431.253 208.455C431.253 210.509 431.556 212.242 432.162 213.653C432.777 215.064 433.639 216.134 434.747 216.864C435.855 217.593 437.152 217.957 438.639 217.957C440.126 217.957 441.423 217.593 442.531 216.864C443.639 216.134 444.496 215.064 445.102 213.653C445.718 212.242 446.026 210.509 446.026 208.455ZM456.704 231.182V201.182H462.67V204.847H462.94C463.205 204.259 463.588 203.663 464.09 203.057C464.602 202.441 465.264 201.93 466.079 201.523C466.903 201.106 467.925 200.898 469.147 200.898C470.738 200.898 472.206 201.314 473.55 202.148C474.895 202.972 475.97 204.217 476.775 205.884C477.58 207.541 477.982 209.619 477.982 212.119C477.982 214.553 477.589 216.608 476.803 218.284C476.027 219.951 474.966 221.215 473.621 222.077C472.286 222.929 470.79 223.355 469.133 223.355C467.959 223.355 466.96 223.161 466.136 222.773C465.321 222.384 464.654 221.897 464.133 221.31C463.612 220.713 463.214 220.112 462.94 219.506H462.755V231.182H456.704ZM462.627 212.091C462.627 213.388 462.807 214.52 463.167 215.486C463.527 216.452 464.048 217.205 464.729 217.744C465.411 218.275 466.24 218.54 467.215 218.54C468.2 218.54 469.033 218.27 469.715 217.73C470.397 217.181 470.913 216.423 471.263 215.457C471.623 214.482 471.803 213.36 471.803 212.091C471.803 210.831 471.628 209.723 471.278 208.767C470.927 207.811 470.411 207.062 469.729 206.523C469.048 205.983 468.21 205.713 467.215 205.713C466.23 205.713 465.397 205.973 464.715 206.494C464.043 207.015 463.527 207.754 463.167 208.71C462.807 209.667 462.627 210.794 462.627 212.091ZM491.96 223.426C489.715 223.426 487.783 222.972 486.164 222.062C484.554 221.144 483.314 219.847 482.442 218.17C481.571 216.485 481.136 214.491 481.136 212.19C481.136 209.946 481.571 207.976 482.442 206.281C483.314 204.586 484.54 203.265 486.121 202.318C487.712 201.371 489.578 200.898 491.718 200.898C493.157 200.898 494.497 201.13 495.738 201.594C496.988 202.048 498.077 202.735 499.005 203.653C499.942 204.572 500.672 205.727 501.192 207.119C501.713 208.502 501.974 210.121 501.974 211.977V213.639H483.55V209.889H496.278C496.278 209.018 496.088 208.246 495.71 207.574C495.331 206.902 494.805 206.376 494.133 205.997C493.47 205.609 492.698 205.415 491.817 205.415C490.899 205.415 490.085 205.628 489.374 206.054C488.674 206.471 488.124 207.034 487.727 207.744C487.329 208.445 487.125 209.226 487.116 210.088V213.653C487.116 214.733 487.315 215.666 487.712 216.452C488.12 217.238 488.692 217.844 489.431 218.27C490.17 218.696 491.046 218.909 492.059 218.909C492.731 218.909 493.347 218.814 493.906 218.625C494.464 218.436 494.942 218.152 495.34 217.773C495.738 217.394 496.041 216.93 496.249 216.381L501.846 216.75C501.562 218.095 500.979 219.269 500.099 220.273C499.228 221.267 498.101 222.044 496.718 222.602C495.345 223.152 493.759 223.426 491.96 223.426ZM511.974 210.386V223H505.923V201.182H511.69V205.031H511.945C512.428 203.762 513.238 202.759 514.374 202.02C515.511 201.272 516.888 200.898 518.508 200.898C520.023 200.898 521.344 201.229 522.471 201.892C523.598 202.555 524.474 203.502 525.099 204.733C525.724 205.955 526.036 207.413 526.036 209.108V223H519.985V210.188C519.995 208.852 519.654 207.811 518.962 207.062C518.271 206.305 517.319 205.926 516.107 205.926C515.293 205.926 514.573 206.101 513.948 206.452C513.333 206.802 512.85 207.313 512.499 207.986C512.158 208.649 511.983 209.449 511.974 210.386ZM558.217 207.403L552.677 207.744C552.582 207.271 552.379 206.845 552.066 206.466C551.754 206.078 551.342 205.77 550.83 205.543C550.328 205.306 549.727 205.188 549.026 205.188C548.089 205.188 547.298 205.386 546.654 205.784C546.01 206.172 545.688 206.693 545.688 207.347C545.688 207.867 545.897 208.308 546.313 208.668C546.73 209.027 547.445 209.316 548.458 209.534L552.407 210.33C554.528 210.765 556.11 211.466 557.151 212.432C558.193 213.398 558.714 214.667 558.714 216.239C558.714 217.669 558.292 218.923 557.45 220.003C556.616 221.082 555.47 221.925 554.012 222.531C552.563 223.128 550.892 223.426 548.998 223.426C546.11 223.426 543.808 222.825 542.094 221.622C540.39 220.41 539.391 218.762 539.097 216.679L545.049 216.366C545.229 217.247 545.665 217.92 546.356 218.384C547.047 218.838 547.933 219.065 549.012 219.065C550.073 219.065 550.925 218.862 551.569 218.455C552.222 218.038 552.554 217.503 552.563 216.849C552.554 216.3 552.322 215.85 551.867 215.5C551.413 215.14 550.712 214.866 549.765 214.676L545.987 213.923C543.856 213.497 542.27 212.759 541.228 211.707C540.196 210.656 539.68 209.316 539.68 207.688C539.68 206.286 540.058 205.079 540.816 204.065C541.583 203.052 542.658 202.271 544.04 201.722C545.433 201.172 547.061 200.898 548.927 200.898C551.683 200.898 553.851 201.48 555.433 202.645C557.023 203.81 557.951 205.396 558.217 207.403ZM572.382 223.426C570.176 223.426 568.268 222.957 566.658 222.02C565.057 221.073 563.821 219.757 562.95 218.071C562.079 216.376 561.643 214.411 561.643 212.176C561.643 209.922 562.079 207.953 562.95 206.267C563.821 204.572 565.057 203.256 566.658 202.318C568.268 201.371 570.176 200.898 572.382 200.898C574.589 200.898 576.492 201.371 578.092 202.318C579.702 203.256 580.943 204.572 581.814 206.267C582.685 207.953 583.121 209.922 583.121 212.176C583.121 214.411 582.685 216.376 581.814 218.071C580.943 219.757 579.702 221.073 578.092 222.02C576.492 222.957 574.589 223.426 572.382 223.426ZM572.411 218.739C573.414 218.739 574.252 218.455 574.925 217.886C575.597 217.309 576.104 216.523 576.445 215.528C576.795 214.534 576.97 213.402 576.97 212.134C576.97 210.865 576.795 209.733 576.445 208.739C576.104 207.744 575.597 206.958 574.925 206.381C574.252 205.803 573.414 205.514 572.411 205.514C571.397 205.514 570.545 205.803 569.854 206.381C569.172 206.958 568.656 207.744 568.305 208.739C567.964 209.733 567.794 210.865 567.794 212.134C567.794 213.402 567.964 214.534 568.305 215.528C568.656 216.523 569.172 217.309 569.854 217.886C570.545 218.455 571.397 218.739 572.411 218.739ZM601.047 213.71V201.182H607.098V223H601.288V219.037H601.061C600.569 220.315 599.75 221.343 598.604 222.119C597.467 222.896 596.08 223.284 594.442 223.284C592.983 223.284 591.7 222.953 590.592 222.29C589.484 221.627 588.618 220.685 587.993 219.463C587.377 218.241 587.065 216.778 587.055 215.074V201.182H593.107V213.994C593.116 215.282 593.462 216.3 594.143 217.048C594.825 217.796 595.739 218.17 596.885 218.17C597.614 218.17 598.296 218.005 598.93 217.673C599.565 217.332 600.076 216.83 600.464 216.168C600.862 215.505 601.056 214.686 601.047 213.71ZM611.938 223V201.182H617.805V204.989H618.032C618.43 203.634 619.097 202.612 620.035 201.92C620.972 201.22 622.052 200.869 623.273 200.869C623.576 200.869 623.903 200.888 624.254 200.926C624.604 200.964 624.912 201.016 625.177 201.082V206.452C624.893 206.366 624.5 206.291 623.998 206.224C623.496 206.158 623.037 206.125 622.62 206.125C621.73 206.125 620.934 206.319 620.234 206.707C619.542 207.086 618.993 207.616 618.586 208.298C618.188 208.98 617.989 209.766 617.989 210.656V223H611.938ZM637.148 223.426C634.913 223.426 632.991 222.953 631.381 222.006C629.78 221.049 628.549 219.723 627.688 218.028C626.835 216.333 626.409 214.383 626.409 212.176C626.409 209.941 626.84 207.981 627.702 206.295C628.573 204.6 629.809 203.279 631.409 202.332C633.009 201.376 634.913 200.898 637.119 200.898C639.023 200.898 640.689 201.243 642.119 201.935C643.549 202.626 644.681 203.597 645.514 204.847C646.348 206.097 646.807 207.564 646.892 209.25H641.182C641.021 208.161 640.595 207.285 639.903 206.622C639.222 205.95 638.327 205.614 637.219 205.614C636.281 205.614 635.462 205.869 634.761 206.381C634.07 206.883 633.53 207.616 633.142 208.582C632.754 209.548 632.56 210.718 632.56 212.091C632.56 213.483 632.749 214.667 633.128 215.642C633.516 216.617 634.061 217.361 634.761 217.872C635.462 218.384 636.281 218.639 637.219 218.639C637.91 218.639 638.53 218.497 639.08 218.213C639.638 217.929 640.098 217.517 640.457 216.977C640.827 216.428 641.068 215.77 641.182 215.003H646.892C646.797 216.67 646.343 218.137 645.528 219.406C644.723 220.666 643.611 221.651 642.19 222.361C640.77 223.071 639.089 223.426 637.148 223.426ZM660.71 223.426C658.465 223.426 656.533 222.972 654.914 222.062C653.304 221.144 652.064 219.847 651.192 218.17C650.321 216.485 649.886 214.491 649.886 212.19C649.886 209.946 650.321 207.976 651.192 206.281C652.064 204.586 653.29 203.265 654.871 202.318C656.462 201.371 658.328 200.898 660.468 200.898C661.907 200.898 663.247 201.13 664.488 201.594C665.738 202.048 666.827 202.735 667.755 203.653C668.692 204.572 669.422 205.727 669.942 207.119C670.463 208.502 670.724 210.121 670.724 211.977V213.639H652.3V209.889H665.028C665.028 209.018 664.838 208.246 664.46 207.574C664.081 206.902 663.555 206.376 662.883 205.997C662.22 205.609 661.448 205.415 660.567 205.415C659.649 205.415 658.835 205.628 658.124 206.054C657.424 206.471 656.874 207.034 656.477 207.744C656.079 208.445 655.875 209.226 655.866 210.088V213.653C655.866 214.733 656.065 215.666 656.462 216.452C656.87 217.238 657.442 217.844 658.181 218.27C658.92 218.696 659.796 218.909 660.809 218.909C661.481 218.909 662.097 218.814 662.656 218.625C663.214 218.436 663.692 218.152 664.09 217.773C664.488 217.394 664.791 216.93 664.999 216.381L670.596 216.75C670.312 218.095 669.729 219.269 668.849 220.273C667.978 221.267 666.851 222.044 665.468 222.602C664.095 223.152 662.509 223.426 660.71 223.426Z" fill="black"/>
</svg>
