<svg width="19" height="19" viewBox="0 0 19 19" fill="none" xmlns="http://www.w3.org/2000/svg">
<path fill-rule="evenodd" clip-rule="evenodd" d="M8.1304 0.7374C8.62604 -0.245799 10.0406 -0.245801 10.5363 0.737398L12.4267 4.4875C12.5978 4.82695 12.9066 5.07804 13.2758 5.17789L17.6749 6.36788C18.7099 6.64785 19.014 7.95807 18.2067 8.65876L15.2773 11.2011C14.9265 11.5055 14.7596 11.9683 14.8363 12.4243L15.6237 17.1106C15.8044 18.186 14.6788 19.0106 13.6956 18.5231L9.9348 16.658C9.55617 16.4702 9.1105 16.4702 8.73187 16.658L4.97102 18.5231C3.98788 19.0106 2.86223 18.186 3.04293 17.1106L3.8304 12.4243C3.90702 11.9683 3.74016 11.5055 3.38941 11.2011L0.460014 8.65876C-0.347341 7.95807 -0.0432071 6.64785 0.99178 6.36788L5.3909 5.17789C5.76005 5.07803 6.06884 4.82695 6.23996 4.4875L8.1304 0.7374Z" fill="#f1b500"/>
</svg>
